<?xml version="1.0" encoding="UTF-8" standalone="no"?>
<!DOCTYPE svg PUBLIC "-//W3C//DTD SVG 1.1//EN" "http://www.w3.org/Graphics/SVG/1.1/DTD/svg11.dtd">
<svg width="100%" height="100%" viewBox="0 0 36 36" version="1.1" xmlns="http://www.w3.org/2000/svg" xmlns:xlink="http://www.w3.org/1999/xlink" xml:space="preserve" xmlns:serif="http://www.serif.com/" style="fill-rule:evenodd;clip-rule:evenodd;stroke-linejoin:round;stroke-miterlimit:2;">
    <g id="Symbols">
        <g id="UI-icons-dark-github" serif:id="UI/icons/dark/github">
            <path id="icons-icon-github" serif:id="icons/icon-github" d="M17.999,2C9.164,2 2,9.163 2,18C2,25.07 6.584,31.066 12.942,33.182C13.743,33.329 14.034,32.835 14.034,32.411C14.034,32.031 14.021,31.025 14.013,29.69C9.562,30.656 8.623,27.545 8.623,27.545C7.895,25.696 6.846,25.204 6.846,25.204C5.394,24.212 6.956,24.232 6.956,24.232C8.562,24.345 9.407,25.881 9.407,25.881C10.834,28.326 13.152,27.619 14.064,27.21C14.209,26.177 14.623,25.471 15.079,25.072C11.527,24.668 7.791,23.295 7.791,17.164C7.791,15.417 8.415,13.988 9.438,12.87C9.273,12.466 8.724,10.838 9.596,8.636C9.596,8.636 10.938,8.206 13.995,10.276C15.271,9.921 16.64,9.744 18,9.737C19.36,9.744 20.728,9.921 22.006,10.276C25.061,8.206 26.401,8.636 26.401,8.636C27.275,10.838 26.726,12.466 26.562,12.87C27.587,13.988 28.206,15.417 28.206,17.164C28.206,23.31 24.465,24.663 20.901,25.059C21.475,25.553 21.986,26.529 21.986,28.021C21.986,30.16 21.967,31.886 21.967,32.411C21.967,32.839 22.256,33.337 23.067,33.181C29.42,31.06 34,25.068 34,18C34,9.163 26.836,2 17.999,2" style="fill:white;"/>
        </g>
    </g>
</svg>
