<?xml version="1.0" encoding="UTF-8" standalone="no"?>
<!DOCTYPE svg PUBLIC "-//W3C//DTD SVG 1.1//EN" "http://www.w3.org/Graphics/SVG/1.1/DTD/svg11.dtd">
<svg width="100%" height="100%" viewBox="0 0 128 128" version="1.1" xmlns="http://www.w3.org/2000/svg" xmlns:xlink="http://www.w3.org/1999/xlink" xml:space="preserve" xmlns:serif="http://www.serif.com/" style="fill-rule:evenodd;clip-rule:evenodd;stroke-linejoin:round;stroke-miterlimit:2;">
    <g id="_x37__stroke">
        <g id="Twitter">
            <rect x="0" y="0" width="128" height="128" style="fill:none;"/>
            <path id="Twitter_1_" d="M128,23.294C123.297,25.436 118.233,26.884 112.921,27.531C118.345,24.203 122.508,18.925 124.469,12.639C119.39,15.721 113.778,17.963 107.782,19.165C103.004,13.934 96.174,10.667 88.616,10.667C74.123,10.667 62.365,22.724 62.365,37.594C62.365,39.705 62.59,41.754 63.041,43.727C41.217,42.601 21.871,31.892 8.91,15.582C6.649,19.573 5.356,24.203 5.356,29.134C5.356,38.472 9.992,46.715 17.039,51.546C12.742,51.415 8.684,50.19 5.138,48.187L5.138,48.518C5.138,61.569 14.191,72.455 26.212,74.921C24.011,75.553 21.689,75.869 19.292,75.869C17.602,75.869 15.949,75.707 14.348,75.391C17.691,86.085 27.383,93.874 38.878,94.082C29.892,101.309 18.563,105.615 6.264,105.615C4.145,105.615 2.049,105.492 -0.002,105.245C11.621,112.872 25.43,117.333 40.253,117.333C88.562,117.333 114.97,76.307 114.97,40.721C114.97,39.55 114.947,38.379 114.902,37.231C120.036,33.433 124.491,28.695 128,23.294" style="fill:white;"/>
        </g>
    </g>
</svg>
